<svg id="Layer_1" data-name="Layer 1" xmlns="http://www.w3.org/2000/svg" viewBox="0 0 108.26 15.21"><defs><style>.cls-1{font-size:20.21px;font-family:TTTravels-Black, TT Travels;font-weight:800;}.cls-1,.cls-5{fill:#fff;}.cls-2{letter-spacing:-0.03em;}.cls-3{letter-spacing:-0.03em;}.cls-4{letter-spacing:0em;}</style></defs><text class="cls-1" transform="translate(-0.22 14.51)">W<tspan class="cls-2" x="23.34" y="0">D</tspan><tspan x="38.91" y="0">TNo</tspan><tspan class="cls-3" x="84.45" y="0">w</tspan><tspan class="cls-4" x="103.04" y="0">.</tspan></text><path class="cls-5" d="M16.13,10h.24L18,.36h4.59L19.57,14.51H13.14L11.56,5h-.22l-1.59,9.5H3.33L.28.36H4.87L6.53,10h.25L8.48.36h6Z"/><path class="cls-5" d="M24.53.36H30.7a8,8,0,0,1,5.62,1.81,6.81,6.81,0,0,1,2,5.27,6.8,6.8,0,0,1-2,5.26,8,8,0,0,1-5.62,1.81H24.53ZM30.7,4.14H29v6.59H30.7c2,0,2.93-1.1,2.93-3.29S32.66,4.14,30.7,4.14Z"/><path class="cls-5" d="M43.58,4H39V.36H52.61V4H48V14.51H43.58Z"/><path class="cls-5" d="M69.08,14.51H62L59.36,6l-.89-2H58l.73,2v8.49H54.32V.36h7.12L64,8.86l.9,2h.43l-.73-2V.36h4.44Z"/><path class="cls-5" d="M73,13.38A4.75,4.75,0,0,1,71.3,9.46,4.75,4.75,0,0,1,73,5.54a8,8,0,0,1,8.83,0,4.75,4.75,0,0,1,1.65,3.92,4.75,4.75,0,0,1-1.65,3.92,8,8,0,0,1-8.83,0Zm5.87-2.54a1.9,1.9,0,0,0,.5-1.38,1.94,1.94,0,0,0-.5-1.39,2.3,2.3,0,0,0-2.91,0,1.9,1.9,0,0,0-.51,1.39,1.86,1.86,0,0,0,.51,1.38,2.3,2.3,0,0,0,2.91,0Z"/><path class="cls-5" d="M93.87,8.25h-.1l-1.62,6.26H86.93l-2.5-10.1h4.06l1.24,6.73h.15L91.5,4.41h4.63l1.64,6.73h.14l1.25-6.73h4.07l-2.51,10.1H95.47Z"/><path class="cls-5" d="M104,14.15a2,2,0,0,1-.6-1.56A2,2,0,0,1,104,11a2.23,2.23,0,0,1,1.63-.56,2.27,2.27,0,0,1,1.62.56,2.08,2.08,0,0,1,.6,1.56,2,2,0,0,1-.6,1.56,2.31,2.31,0,0,1-1.62.56A2.27,2.27,0,0,1,104,14.15Z"/></svg>